<?xml version="1.0" encoding="UTF-8" standalone="no"?>
<!DOCTYPE svg PUBLIC "-//W3C//DTD SVG 1.1//EN" "http://www.w3.org/Graphics/SVG/1.1/DTD/svg11.dtd">
<svg width="100%" height="100%" viewBox="0 0 49 34" version="1.1" xmlns="http://www.w3.org/2000/svg" xmlns:xlink="http://www.w3.org/1999/xlink" xml:space="preserve" xmlns:serif="http://www.serif.com/" style="fill-rule:evenodd;clip-rule:evenodd;stroke-linejoin:round;stroke-miterlimit:2;">
    <g transform="matrix(1,0,0,1,2409.95683,-1241.894714)">
        <g transform="matrix(0.847308,0,0,0.847308,-7806.550832,-6989.13179)">
            <path d="M6425.6,9752.487L6406.802,9734.181L6426.556,9720.023L6426.556,9749.667C6426.556,9750.728 6426.199,9751.706 6425.6,9752.487ZM6426.511,9718.319L6426.503,9718.325L6405.034,9733.712L6402.2,9733.474L6402.173,9731.557C6402.17,9731.379 6402.084,9731.213 6401.94,9731.108C6401.796,9731.003 6401.611,9730.973 6401.441,9731.026L6399.61,9731.593L6398.353,9728.603C6398.265,9728.393 6398.06,9728.257 6397.833,9728.257C6397.605,9728.257 6397.4,9728.393 6397.312,9728.603L6396.055,9731.593L6394.224,9731.026C6394.054,9730.973 6393.869,9731.003 6393.725,9731.108C6393.581,9731.213 6393.495,9731.379 6393.492,9731.557L6393.466,9733.474L6390.631,9733.712L6369.159,9718.325L6369.153,9718.321C6369.467,9716.067 6371.402,9714.332 6373.743,9714.332L6421.922,9714.332C6424.262,9714.332 6426.197,9716.066 6426.511,9718.319ZM6369.109,9720.026L6388.861,9734.18L6370.02,9752.426C6369.448,9751.655 6369.109,9750.701 6369.109,9749.667L6369.109,9720.026ZM6397.833,9730.279L6398.767,9732.502C6398.88,9732.77 6399.177,9732.909 6399.455,9732.823L6401.054,9732.328L6401.077,9734.002C6401.081,9734.292 6401.305,9734.532 6401.595,9734.557L6403.998,9734.758L6402.172,9736.334C6401.952,9736.524 6401.912,9736.85 6402.08,9737.087L6403.045,9738.456L6401.46,9738.995C6401.185,9739.089 6401.026,9739.376 6401.092,9739.659L6401.643,9742.007L6399.58,9740.757C6399.332,9740.607 6399.009,9740.669 6398.835,9740.902L6397.833,9742.243L6396.83,9740.902C6396.656,9740.669 6396.333,9740.607 6396.085,9740.757L6394.022,9742.007L6394.573,9739.659C6394.639,9739.376 6394.48,9739.089 6394.205,9738.995L6392.62,9738.456L6393.585,9737.087C6393.753,9736.85 6393.713,9736.524 6393.493,9736.334L6391.667,9734.758L6394.07,9734.557C6394.36,9734.532 6394.584,9734.292 6394.588,9734.002L6394.611,9732.328L6396.21,9732.823C6396.488,9732.909 6396.785,9732.77 6396.898,9732.502L6397.833,9730.279ZM6371.024,9753.419L6390.027,9735.016C6390.135,9735.089 6390.255,9735.129 6390.377,9735.137L6392.367,9736.855L6391.262,9738.421C6391.159,9738.567 6391.131,9738.752 6391.186,9738.921C6391.241,9739.091 6391.373,9739.224 6391.541,9739.281L6393.356,9739.899L6392.616,9743.057C6392.564,9743.278 6392.65,9743.509 6392.834,9743.642C6393.017,9743.776 6393.263,9743.786 6393.458,9743.669L6396.232,9741.988L6397.38,9743.524C6397.487,9743.666 6397.655,9743.75 6397.833,9743.75C6398.011,9743.75 6398.178,9743.666 6398.285,9743.524L6399.433,9741.988L6402.207,9743.669C6402.402,9743.786 6402.648,9743.776 6402.832,9743.642C6403.015,9743.509 6403.101,9743.278 6403.049,9743.057L6402.309,9739.899L6404.124,9739.281C6404.292,9739.224 6404.424,9739.091 6404.479,9738.921C6404.534,9738.752 6404.506,9738.567 6404.403,9738.421L6403.298,9736.855L6405.288,9735.137C6405.409,9735.129 6405.529,9735.089 6405.636,9735.017L6424.579,9753.464C6423.827,9753.991 6422.911,9754.301 6421.922,9754.301L6373.743,9754.301C6372.727,9754.301 6371.787,9753.974 6371.024,9753.419Z" style="fill:rgb(36,63,82);"/>
        </g>
    </g>
</svg>
