<?xml version="1.0" encoding="UTF-8" standalone="no"?>
<!DOCTYPE svg PUBLIC "-//W3C//DTD SVG 1.1//EN" "http://www.w3.org/Graphics/SVG/1.1/DTD/svg11.dtd">
<svg width="100%" height="100%" viewBox="0 0 66 66" version="1.1" xmlns="http://www.w3.org/2000/svg" xmlns:xlink="http://www.w3.org/1999/xlink" xml:space="preserve" xmlns:serif="http://www.serif.com/" style="fill-rule:evenodd;clip-rule:evenodd;stroke-linejoin:round;stroke-miterlimit:2;">
    <g transform="matrix(1,0,0,1,1383.116622,-1326.303848)">
        <g transform="matrix(0.03068,0,0,0.03068,-1654.22062,1442.176862)">
            <path d="M9903.262,-3776.772C10492.09,-3776.772 10970.143,-3298.719 10970.143,-2709.891C10970.143,-2121.064 10492.09,-1643.01 9903.262,-1643.01C9314.434,-1643.01 8836.381,-2121.064 8836.381,-2709.891C8836.381,-3298.719 9314.434,-3776.772 9903.262,-3776.772ZM10285.82,-3496.867L10049.212,-3497.153C9819.761,-3497.153 9671.541,-3345.14 9671.541,-3109.606L9671.541,-2931.04L9434.146,-2931.04L9434.146,-2607.905L9671.541,-2607.905L9671.255,-1922.629L10003.408,-1922.629L10003.694,-2607.905L10276.087,-2607.905L10275.872,-2930.969L10003.694,-2930.969L10003.694,-3082.481C10003.694,-3155.339 10020.942,-3192.197 10115.772,-3192.197L10285.105,-3192.268L10285.82,-3496.867Z" style="fill:rgb(36,63,82);"/>
        </g>
    </g>
</svg>
