<?xml version="1.0" encoding="UTF-8" standalone="no"?>
<!DOCTYPE svg PUBLIC "-//W3C//DTD SVG 1.1//EN" "http://www.w3.org/Graphics/SVG/1.1/DTD/svg11.dtd">
<svg width="100%" height="100%" viewBox="0 0 66 66" version="1.1" xmlns="http://www.w3.org/2000/svg" xmlns:xlink="http://www.w3.org/1999/xlink" xml:space="preserve" xmlns:serif="http://www.serif.com/" style="fill-rule:evenodd;clip-rule:evenodd;stroke-linejoin:round;stroke-miterlimit:2;">
    <g transform="matrix(1,0,0,1,1277.651877,-1326.303848)">
        <g transform="matrix(0.03068,0,0,0.03068,-1548.755876,1442.176862)">
            <path d="M9903.262,-3776.772C10492.09,-3776.772 10970.143,-3298.719 10970.143,-2709.891C10970.143,-2121.064 10492.09,-1643.01 9903.262,-1643.01C9314.434,-1643.01 8836.381,-2121.064 8836.381,-2709.891C8836.381,-3298.719 9314.434,-3776.772 9903.262,-3776.772ZM9297.638,-3156.548C9259.821,-3082.328 9259.821,-2985.169 9259.821,-2790.85L9259.821,-2628.933C9259.821,-2434.615 9259.821,-2337.453 9297.638,-2263.237C9330.903,-2197.949 9383.981,-2144.869 9449.268,-2111.607C9523.488,-2073.788 9620.647,-2073.788 9814.966,-2073.788L9976.883,-2073.788C10171.201,-2073.788 10268.363,-2073.788 10342.579,-2111.607C10407.867,-2144.869 10460.947,-2197.949 10494.209,-2263.237C10532.028,-2337.453 10532.028,-2434.615 10532.028,-2628.933L10532.028,-2790.85C10532.028,-2985.169 10532.028,-3082.328 10494.209,-3156.548C10460.947,-3221.835 10407.867,-3274.913 10342.579,-3308.178C10268.363,-3345.995 10171.201,-3345.995 9976.883,-3345.995L9814.966,-3345.995C9620.647,-3345.995 9523.488,-3345.995 9449.268,-3308.178C9383.981,-3274.913 9330.903,-3221.835 9297.638,-3156.548ZM9976.883,-3230.34C10075.953,-3230.34 10143.294,-3230.25 10195.35,-3225.997C10246.059,-3221.854 10271.989,-3214.345 10290.078,-3205.129C10333.599,-3182.952 10368.983,-3147.566 10391.16,-3104.042C10400.378,-3085.954 10407.89,-3060.024 10412.03,-3009.318C10416.281,-2957.263 10416.373,-2889.918 10416.373,-2790.85L10416.373,-2628.933C10416.373,-2529.862 10416.281,-2462.522 10412.03,-2410.466C10407.89,-2359.757 10400.378,-2333.827 10391.16,-2315.738C10368.983,-2272.217 10333.599,-2236.833 10290.078,-2214.656C10271.989,-2205.438 10246.059,-2197.926 10195.35,-2193.786C10143.294,-2189.535 10075.953,-2189.443 9976.883,-2189.443L9814.966,-2189.443C9715.898,-2189.443 9648.553,-2189.535 9596.498,-2193.786C9545.792,-2197.926 9519.862,-2205.438 9501.774,-2214.656C9458.25,-2236.833 9422.864,-2272.217 9400.687,-2315.738C9391.471,-2333.827 9383.962,-2359.757 9379.819,-2410.466C9375.566,-2462.522 9375.476,-2529.862 9375.476,-2628.933L9375.476,-2790.85C9375.476,-2889.918 9375.566,-2957.263 9379.819,-3009.318C9383.962,-3060.024 9391.471,-3085.954 9400.687,-3104.042C9422.864,-3147.566 9458.25,-3182.952 9501.774,-3205.129C9519.862,-3214.345 9545.792,-3221.854 9596.498,-3225.997C9648.553,-3230.25 9715.898,-3230.34 9814.966,-3230.34L9976.883,-3230.34ZM10242.89,-3114.685C10210.952,-3114.685 10185.063,-3088.794 10185.063,-3056.857C10185.063,-3024.92 10210.952,-2999.029 10242.89,-2999.029C10274.828,-2999.029 10300.718,-3024.92 10300.718,-3056.857C10300.718,-3088.794 10274.828,-3114.685 10242.89,-3114.685ZM9895.925,-2362.926C10087.548,-2362.926 10242.89,-2518.268 10242.89,-2709.891C10242.89,-2901.515 10087.548,-3056.857 9895.925,-3056.857C9704.301,-3056.857 9548.959,-2901.515 9548.959,-2709.891C9548.959,-2518.268 9704.301,-2362.926 9895.925,-2362.926ZM9895.925,-2478.581C9768.175,-2478.581 9664.614,-2582.144 9664.614,-2709.891C9664.614,-2837.641 9768.175,-2941.202 9895.925,-2941.202C10023.672,-2941.202 10127.235,-2837.641 10127.235,-2709.891C10127.235,-2582.144 10023.672,-2478.581 9895.925,-2478.581Z" style="fill:rgb(36,63,82);"/>
        </g>
    </g>
</svg>
