<?xml version="1.0" encoding="UTF-8" standalone="no"?>
<!DOCTYPE svg PUBLIC "-//W3C//DTD SVG 1.1//EN" "http://www.w3.org/Graphics/SVG/1.1/DTD/svg11.dtd">
<svg width="100%" height="100%" viewBox="0 0 66 66" version="1.1" xmlns="http://www.w3.org/2000/svg" xmlns:xlink="http://www.w3.org/1999/xlink" xml:space="preserve" xmlns:serif="http://www.serif.com/" style="fill-rule:evenodd;clip-rule:evenodd;stroke-linejoin:round;stroke-miterlimit:2;">
    <g transform="matrix(1,0,0,1,1172.187133,-1326.303848)">
        <g transform="matrix(0.03068,0,0,0.03068,-1443.291131,1442.176862)">
            <path d="M9903.262,-3776.772C10492.09,-3776.772 10970.143,-3298.719 10970.143,-2709.891C10970.143,-2121.064 10492.09,-1643.01 9903.262,-1643.01C9314.434,-1643.01 8836.381,-2121.064 8836.381,-2709.891C8836.381,-3298.719 9314.434,-3776.772 9903.262,-3776.772ZM10039.473,-2808.981L10039.473,-2806.09L10037.61,-2806.09C10038.223,-2807.046 10038.843,-2808.01 10039.473,-2808.981L10039.473,-2928.529L9758.837,-2928.529C9762.518,-2849.315 9758.837,-2084.25 9758.837,-2084.25L10039.473,-2084.25L10039.473,-2555.742C10039.473,-2580.976 10041.279,-2606.207 10048.7,-2624.171C10068.985,-2674.638 10115.174,-2726.848 10192.679,-2726.848C10294.252,-2726.848 10334.851,-2649.405 10334.851,-2535.914L10334.851,-2084.247L10615.441,-2084.247L10615.441,-2568.354C10615.441,-2827.686 10477.024,-2948.354 10292.356,-2948.354C10143.502,-2948.354 10076.741,-2866.492 10039.473,-2808.981ZM9463.274,-3043.76C9561.091,-3043.76 9622.024,-3108.646 9622.024,-3189.664C9620.174,-3272.482 9561.091,-3335.535 9465.108,-3335.535C9369.11,-3335.533 9306.361,-3272.479 9306.361,-3189.661C9306.361,-3108.644 9367.26,-3043.759 9461.427,-3043.759L9463.274,-3043.76ZM9603.541,-2084.251L9603.541,-2928.531L9322.949,-2928.531L9322.949,-2084.253L9603.541,-2084.251Z" style="fill:rgb(36,63,82);"/>
        </g>
    </g>
</svg>
