<?xml version="1.0" encoding="UTF-8" standalone="no"?>
<!DOCTYPE svg PUBLIC "-//W3C//DTD SVG 1.1//EN" "http://www.w3.org/Graphics/SVG/1.1/DTD/svg11.dtd">
<svg width="100%" height="100%" viewBox="0 0 493 635" version="1.1" xmlns="http://www.w3.org/2000/svg" xmlns:xlink="http://www.w3.org/1999/xlink" xml:space="preserve" xmlns:serif="http://www.serif.com/" style="fill-rule:evenodd;clip-rule:evenodd;stroke-linejoin:round;stroke-miterlimit:2;">
    <g transform="matrix(1,0,0,1,2437.235551,-190.58888)">
        <g transform="matrix(3.098286,0,0,6.69149,-5124.320126,-0.57423)">
            <g transform="matrix(1,0,0,1,0,-0.472116)">
                <g transform="matrix(1,0,0,1,793.382575,-3.525613)">
                    <g transform="matrix(0.105779,0,0,0.048977,101.40031,109.456925)">
                        <g transform="matrix(0,-1,-1,0,525.1762,-2.2153)">
                            <path d="M-40.636,-40.535C-61.993,-40.635 -78.956,-24.847 -78.956,0.706C-78.956,24.994 -61.993,40.736 -40.636,40.637C-18.707,40.736 -2.215,24.635 -2.215,0.025C-2.215,-24.766 -18.628,-40.236 -40.636,-40.535" style="fill:rgb(254,214,32);"/>
                        </g>
                    </g>
                    <g transform="matrix(0.105779,0,0,0.048977,106.424414,116.656583)">
                        <path d="M0,-22.194L18.772,-22.194C42.554,-22.194 56.777,-34.314 56.777,-52.742C56.777,-72.149 43.477,-82.072 21.58,-82.197C10.105,-82.197 3.38,-81.447 0,-80.589L0,-22.194ZM-47.496,-113.36C-32.103,-115.959 -9.288,-117.92 16.207,-117.92C47.651,-117.92 69.68,-113.123 84.812,-101.125C97.468,-91.078 104.432,-76.179 104.432,-56.684C104.432,-29.831 85.231,-11.121 67.006,-4.584L67.006,-3.583C81.713,2.356 89.989,16.412 95.331,35.893C101.883,59.882 108.283,87.515 112.439,95.726L63.366,95.726C60.109,89.592 54.821,72.552 48.787,46.313C42.88,19.817 33.982,12.737 14.253,12.488L0,12.488L0,95.726L-47.496,95.726L-47.496,-113.36Z" style="fill:rgb(52,85,139);"/>
                    </g>
                    <g transform="matrix(0.105779,0,0,0.048977,128.488925,117.37045)">
                        <path d="M0,8.348C-25.179,8.211 -44.648,14.281 -44.648,32.609C-44.648,45.011 -36.539,51.04 -25.649,51.04C-13.943,51.04 -4.034,43.223 -0.89,33.355C-0.162,30.875 0,27.899 0,25.18L0,8.348ZM5.8,81.151L2.978,65.851L1.96,65.851C-8.082,78.109 -23.793,84.61 -42.009,84.61C-73.354,84.61 -91.769,62.106 -91.769,37.511C-91.769,-2.594 -55.894,-21.605 -1.427,-21.534L-1.427,-23.498C-1.427,-31.679 -5.824,-43.374 -29.617,-43.324C-45.309,-43.324 -61.797,-37.987 -72.045,-31.831L-80.856,-62.465C-70.134,-68.597 -49.152,-76.262 -21.02,-76.262C30.232,-76.262 46.442,-45.969 46.442,-9.82L46.442,43.868C46.442,58.548 47.224,72.506 48.892,81.151L5.8,81.151Z" style="fill:rgb(52,85,139);"/>
                    </g>
                    <g transform="matrix(0.105779,0,0,0.048977,146.699413,114.91679)">
                        <path d="M0,42.638C0,39.959 -0.1,36.703 -0.625,33.962C-3.352,21.116 -13.789,10.569 -28.372,10.569C-50.31,10.569 -61.411,30.013 -61.411,54.274C-61.411,80.181 -48.643,96.549 -28.707,96.549C-15.1,96.549 -3.928,87.12 -1.015,73.616C-0.223,70.321 0,66.62 0,62.788L0,42.638ZM47.868,-92.07L47.868,85.263C47.868,102.738 48.465,120.943 49.127,131.248L6.581,131.248L4.566,108.703L3.904,108.703C-5.787,125.964 -24.43,134.708 -44.283,134.708C-80.609,134.708 -109.995,103.507 -109.995,55.66C-110.231,3.97 -77.762,-26.164 -41.11,-26.164C-22.089,-26.164 -7.515,-19.398 -0.629,-8.764L0,-8.764L0,-92.07L47.868,-92.07Z" style="fill:rgb(52,85,139);"/>
                    </g>
                    <g transform="matrix(0.105779,0,0,0.048977,101.40031,109.456925)">
                        <g transform="matrix(1,0,0,1,0,-34.576)">
                            <rect x="501.161" y="123.349" width="47.93" height="153.952" style="fill:rgb(52,85,139);"/>
                        </g>
                    </g>
                    <g transform="matrix(0.105779,0,0,0.048977,170.845013,117.37045)">
                        <path d="M0,8.348C-25.179,8.211 -44.647,14.281 -44.647,32.609C-44.647,45.011 -36.537,51.04 -25.647,51.04C-13.941,51.04 -4.034,43.223 -0.889,33.355C-0.162,30.875 0,27.899 0,25.18L0,8.348ZM5.8,81.151L2.979,65.851L1.961,65.851C-8.081,78.109 -23.791,84.61 -42.008,84.61C-73.352,84.61 -91.768,62.106 -91.768,37.511C-91.768,-2.594 -55.894,-21.605 -1.426,-21.534L-1.426,-23.498C-1.426,-31.679 -5.823,-43.374 -29.617,-43.324C-45.308,-43.324 -61.796,-37.987 -72.044,-31.831L-80.856,-62.465C-70.132,-68.597 -49.15,-76.262 -21.02,-76.262C30.232,-76.262 46.443,-45.969 46.443,-9.82L46.443,43.868C46.443,58.548 47.224,72.506 48.892,81.151L5.8,81.151Z" style="fill:rgb(52,85,139);"/>
                    </g>
                    <g transform="matrix(0.105779,0,0,0.048977,101.40031,109.456925)">
                        <g transform="matrix(1,0,0,1,983.6813,166.8214)">
                            <path d="M0,-42.747L0,-78.049L-34.454,-78.049L-34.454,-121.954L-81.269,-111.127L-81.269,-78.049L-122.336,-78.049C-120.7,-76.599 -119.128,-75.054 -117.634,-73.399C-110.267,-65.237 -105.018,-54.928 -101.955,-42.747L-81.269,-42.747L-81.269,20.22C-81.269,42.081 -76.925,56.725 -68.038,65.846C-60.341,73.824 -47.438,79.207 -31.964,79.207C-18.564,79.207 -7.134,77.324 -0.957,75.094L-1.339,38.729C-4.634,39.508 -9.394,40.158 -15.566,40.158C-29.843,40.158 -34.454,31.6 -34.454,13.034L-34.454,-42.747L0,-42.747Z" style="fill:rgb(52,85,139);"/>
                        </g>
                    </g>
                    <g transform="matrix(0.105779,0,0,0.048977,178.274989,118.766965)">
                        <path d="M0,-52.138C0,-71.311 -0.597,-87.519 -1.259,-101.315L40.255,-101.315L42.471,-79.983L43.473,-79.983C49.683,-89.898 65.346,-104.775 91.046,-104.775C122.489,-104.775 146.15,-83.803 146.15,-38.49L146.15,52.637L98.219,52.637L98.219,-32.688C98.219,-52.521 91.137,-66.099 73.874,-66.099C60.704,-66.099 52.911,-56.876 49.602,-48.024C48.377,-45.028 47.931,-40.475 47.931,-36.191L47.931,52.637L0,52.637L0,-52.138Z" style="fill:rgb(52,85,139);"/>
                    </g>
                    <g transform="matrix(0.105779,0,0,0.048977,102.153686,122.581675)">
                        <path d="M0,76.053L0,32.068L-7.122,32.068L-7.122,25.04L0,25.04L0,22.581C0,15.386 1.654,8.877 5.932,4.707C9.408,1.344 14.072,0 18.332,0C21.697,0 24.476,0.701 26.257,1.494L25.032,8.621C23.616,8.001 21.802,7.458 19.073,7.458C11.238,7.458 9.183,14.405 9.183,22.28L9.183,25.04L21.508,25.04L21.508,32.068L9.231,32.068L9.231,76.053L0,76.053Z" style="fill:rgb(128,128,128);"/>
                    </g>
                    <g transform="matrix(0.105779,0,0,0.048977,101.40031,121.739209)">
                        <path d="M60.126,42.241L69.357,42.241L69.357,93.254L60.126,93.254L60.126,42.241ZM70.492,27.819C70.5,30.976 68.278,33.585 64.591,33.585C61.234,33.585 58.982,30.976 58.99,27.819C58.982,24.634 61.36,22.046 64.759,22.046C68.222,22.046 70.468,24.579 70.492,27.819" style="fill:rgb(128,128,128);"/>
                    </g>
                    <g transform="matrix(0.105779,0,0,0.048977,112.813453,125.574862)">
                        <path d="M0,-22.295C0,-27.619 -0.174,-31.845 -0.422,-36.073L7.776,-36.073L8.288,-27.684L8.546,-27.684C11.053,-32.476 16.988,-37.234 25.414,-37.234C32.421,-37.234 43.392,-33.017 43.392,-15.493L43.392,14.939L34.161,14.939L34.161,-14.473C34.161,-22.719 31.053,-29.627 22.369,-29.627C16.28,-29.627 11.532,-25.299 9.869,-20.105C9.484,-18.971 9.231,-17.328 9.231,-15.802L9.231,14.939L0,14.939L0,-22.295Z" style="fill:rgb(128,128,128);"/>
                    </g>
                    <g transform="matrix(0.105779,0,0,0.048977,124.219446,125.083887)">
                        <path d="M0,-1.085C-10.039,-1.298 -21.534,0.506 -21.534,10.37C-21.534,16.459 -17.528,19.253 -12.872,19.253C-6.155,19.253 -1.919,15.023 -0.44,10.71C-0.118,9.724 0,8.675 0,7.789L0,-1.085ZM1.443,24.964L0.626,18.521L0.348,18.521C-2.453,22.503 -7.953,26.124 -15.259,26.124C-25.565,26.124 -30.841,18.809 -30.841,11.487C-30.841,-0.87 -19.889,-7.657 -0.182,-7.517L-0.182,-8.601C-0.182,-12.747 -1.348,-20.425 -11.798,-20.369C-16.545,-20.369 -21.509,-18.952 -25.088,-16.566L-27.193,-22.736C-22.967,-25.462 -16.792,-27.209 -10.356,-27.209C5.237,-27.209 9.04,-16.548 9.04,-6.329L9.04,12.756C9.04,17.114 9.238,21.46 9.81,24.964L1.443,24.964Z" style="fill:rgb(128,128,128);"/>
                    </g>
                    <g transform="matrix(0.105779,0,0,0.048977,129.214492,125.574862)">
                        <path d="M0,-22.295C0,-27.619 -0.174,-31.845 -0.422,-36.073L7.776,-36.073L8.287,-27.684L8.546,-27.684C11.053,-32.476 16.988,-37.234 25.414,-37.234C32.422,-37.234 43.392,-33.017 43.392,-15.493L43.392,14.939L34.161,14.939L34.161,-14.473C34.161,-22.719 31.053,-29.627 22.369,-29.627C16.28,-29.627 11.532,-25.299 9.868,-20.105C9.483,-18.971 9.231,-17.328 9.231,-15.802L9.231,14.939L0,14.939L0,-22.295Z" style="fill:rgb(128,128,128);"/>
                    </g>
                    <g transform="matrix(0.105779,0,0,0.048977,141.651107,123.896751)">
                        <path d="M0,47.355C-2.44,48.55 -7.773,50.31 -14.635,50.31C-30.02,50.31 -40.091,39.841 -40.091,24.245C-40.091,8.521 -29.368,-2.955 -12.684,-2.955C-7.214,-2.955 -2.291,-1.568 0.211,-0.237L-1.852,6.888C-4.125,5.679 -7.597,4.435 -12.701,4.435C-24.338,4.435 -30.721,13.159 -30.697,23.754C-30.697,35.574 -23.099,42.844 -12.927,42.844C-7.729,42.844 -4.191,41.526 -1.57,40.392L0,47.355Z" style="fill:rgb(128,128,128);"/>
                    </g>
                    <g transform="matrix(0.105779,0,0,0.048977,101.40031,121.739209)">
                        <path d="M414.019,42.241L423.25,42.241L423.25,93.254L414.019,93.254L414.019,42.241ZM424.385,27.819C424.393,30.976 422.171,33.585 418.484,33.585C415.126,33.585 412.875,30.976 412.883,27.819C412.875,24.634 415.253,22.046 418.652,22.046C422.115,22.046 424.361,24.579 424.385,27.819" style="fill:rgb(128,128,128);"/>
                    </g>
                    <g transform="matrix(0.105779,0,0,0.048977,153.008336,125.083887)">
                        <path d="M0,-1.085C-10.039,-1.298 -21.534,0.506 -21.534,10.37C-21.534,16.459 -17.528,19.253 -12.873,19.253C-6.155,19.253 -1.919,15.023 -0.44,10.71C-0.119,9.724 0,8.675 0,7.789L0,-1.085ZM1.443,24.964L0.625,18.521L0.348,18.521C-2.453,22.503 -7.953,26.124 -15.259,26.124C-25.565,26.124 -30.841,18.809 -30.841,11.487C-30.841,-0.87 -19.89,-7.657 -0.183,-7.517L-0.183,-8.601C-0.183,-12.747 -1.349,-20.425 -11.798,-20.369C-16.546,-20.369 -21.51,-18.952 -25.088,-16.566L-27.193,-22.736C-22.968,-25.462 -16.793,-27.209 -10.356,-27.209C5.237,-27.209 9.04,-16.548 9.04,-6.329L9.04,12.756C9.04,17.114 9.238,21.46 9.81,24.964L1.443,24.964Z" style="fill:rgb(128,128,128);"/>
                    </g>
                    <g transform="matrix(0.105779,0,0,0.048977,101.40031,121.558726)">
                        <rect x="536.077" y="22.046" width="9.231" height="74.893" style="fill:rgb(128,128,128);"/>
                    </g>
                    <g transform="matrix(0.105779,0,0,0.048977,172.226313,126.346772)">
                        <path d="M0,-31.769C0,-33.287 -0.134,-34.671 -0.514,-35.918C-2.224,-41.322 -6.705,-45.789 -13.544,-45.789C-22.394,-45.789 -28.739,-38.306 -28.739,-26.449C-28.739,-16.469 -23.586,-8.073 -13.636,-8.073C-7.877,-8.073 -2.717,-11.711 -0.73,-17.641C-0.237,-19.136 0,-20.955 0,-22.573L0,-31.769ZM9.653,-51.834C9.397,-48.229 9.223,-44.086 9.223,-37.873L9.223,-8.252C9.223,3.556 6.813,10.633 1.938,15.104C-3.073,19.698 -10.21,21.225 -16.646,21.225C-22.818,21.225 -29.533,19.78 -33.677,17.024L-31.352,9.888C-27.947,12.016 -22.702,13.973 -16.334,13.973C-6.864,13.973 0.095,9.017 0.095,-3.902L0.095,-9.589L-0.116,-9.589C-2.904,-4.796 -8.464,-0.995 -16.327,-0.995C-29.046,-0.995 -38.078,-11.812 -38.078,-25.948C-38.078,-43.246 -26.827,-52.994 -15.045,-52.994C-6.19,-52.994 -1.402,-48.439 0.869,-44.194L1.08,-44.194L1.466,-51.834L9.653,-51.834Z" style="fill:rgb(128,128,128);"/>
                    </g>
                    <g transform="matrix(0.105779,0,0,0.048977,177.156824,125.471598)">
                        <path d="M0,-18.077C0,-24.1 -0.15,-29.234 -0.422,-33.965L7.71,-33.965L8.064,-23.958L8.393,-23.958C10.775,-30.802 16.401,-35.125 22.599,-35.125C23.604,-35.125 24.332,-35.061 25.179,-34.864L25.179,-26.138C24.232,-26.335 23.298,-26.407 22.023,-26.407C15.485,-26.407 10.865,-21.479 9.605,-14.538C9.365,-13.236 9.231,-11.715 9.231,-10.207L9.231,17.048L0,17.048L0,-18.077Z" style="fill:rgb(128,128,128);"/>
                    </g>
                    <g transform="matrix(0.105779,0,0,0.048977,183.769701,125.052272)">
                        <path d="M0,0.206C0,11.396 6.411,19.819 15.464,19.819C24.359,19.819 31.008,11.508 31.008,-0.071C31.008,-8.7 26.659,-19.612 15.632,-19.612C4.736,-19.612 0,-9.466 0,0.206M40.45,-0.387C40.45,18.504 27.344,26.77 15.081,26.77C1.245,26.77 -9.442,16.686 -9.442,0.491C-9.442,-16.581 1.781,-26.564 15.891,-26.564C30.558,-26.564 40.45,-15.925 40.45,-0.387" style="fill:rgb(128,128,128);"/>
                    </g>
                    <g transform="matrix(0.105779,0,0,0.048977,196.211457,124.548783)">
                        <path d="M0,21.927C0,27.277 0.174,31.855 0.422,35.889L-7.776,35.889L-8.269,27.548L-8.528,27.548C-10.88,31.652 -16.272,37.05 -25.414,37.05C-33.396,37.05 -42.984,32.574 -42.984,14.692L-42.984,-15.123L-33.753,-15.123L-33.753,13.061C-33.753,22.778 -30.724,29.396 -22.35,29.396C-16.135,29.396 -11.79,25.044 -10.074,20.88C-9.594,19.544 -9.231,17.886 -9.231,16.123L-9.231,-15.123L0,-15.123L0,21.927Z" style="fill:rgb(128,128,128);"/>
                    </g>
                    <g transform="matrix(0.105779,0,0,0.048977,201.189198,125.791019)">
                        <path d="M0,-10.235C0,-8.928 0.134,-7.651 0.401,-6.462C2.069,0.021 7.691,4.418 14.272,4.418C24.109,4.418 29.784,-3.65 29.784,-15.344C29.784,-25.522 24.452,-34.275 14.63,-34.275C8.315,-34.275 2.353,-29.802 0.596,-22.828C0.292,-21.632 0,-20.279 0,-19.059L0,-10.235ZM-9.223,-23.869C-9.223,-30.373 -9.397,-35.671 -9.645,-40.487L-1.355,-40.487L-0.843,-31.792L-0.632,-31.792C3.079,-38.014 9.186,-41.647 17.475,-41.647C29.826,-41.647 39.131,-31.244 39.131,-15.761C39.131,2.626 27.885,11.686 15.934,11.686C9.113,11.686 3.25,8.718 0.211,3.65L0,3.65L0,31.412L-9.223,31.412L-9.223,-23.869Z" style="fill:rgb(128,128,128);"/>
                    </g>
                </g>
            </g>
            <g transform="matrix(1.195181,0,0,1.195181,374.809055,-653.626254)">
                <g transform="matrix(0.612667,0,0,0.612667,-549.20518,450.062084)">
                    <g transform="matrix(0.239199,0,0,0.110754,1555.078595,186.931033)">
                        <path d="M275.963,346.618C275.141,346.752 273.845,346.95 271.733,347.243C269.899,347.497 250.681,351.155 228.487,351.066C220.37,351.034 204.321,350.173 192.083,347.231C188.24,346.307 173.911,343.789 158.374,333.144C132.441,315.377 125.928,284.939 132.052,255.978C138.834,223.903 160.518,194.169 164.002,189.398C167.442,184.689 206.074,128.888 267.989,110.737C269.825,110.198 283.073,106.343 291.517,106.413C294.673,106.439 296.663,107.499 297.882,108.854C299.681,110.852 299.891,113.687 299.199,115.945C298.694,117.591 297.704,118.882 296.703,119.481C295.4,120.259 293.878,120.657 291.681,121.022C287.374,121.738 280.039,122.517 265.096,128.08C211.574,148.004 172.676,195.32 157.539,226.492C146.152,249.943 143.917,265.583 144.917,279.317C146.259,297.744 157.165,308.958 159.098,310.946C181.929,334.419 219.347,335.532 235.485,335.419C248.738,335.326 267.002,333.173 277.575,331.315C280.24,330.846 282.406,330.4 283.862,330.008C284.333,329.882 284.87,329.693 285.1,329.611C285.422,329.148 286.894,327.018 288.178,324.879C292.249,318.09 298.449,306.838 301.05,302.602C301.056,302.594 316.164,276.274 317.376,274.245C324.299,262.656 357.908,201.819 377.995,174.392C387.248,161.757 400.487,143.088 421.908,123.734C438.993,108.299 456.723,99.617 465.814,96.499C473.031,94.024 485.911,89.515 501.893,92.16C504.989,92.673 510.88,94.64 514.51,96.838C527.147,104.492 533.003,122.878 524.525,152.088C519.943,167.872 510.092,185.901 502.98,196.5C497.362,204.872 497.463,204.92 491.307,212.891C486.258,219.43 486.333,219.463 480.937,225.739C479.843,227.012 475.059,232.957 468.16,240.104C465.739,242.611 455.887,253.079 449.224,258.571C445.948,261.272 443.175,265.09 421.526,281.818C409.232,291.317 393.965,300.621 391.488,302.13C390.443,302.767 390.34,302.83 378.265,309.814C370.331,314.404 351.235,323.779 341.193,327.416C340.756,327.574 333.831,330.479 331.076,331.341C329.198,331.93 322.786,334.522 319.098,335.581C316.337,336.374 316.555,336.85 313.995,341.35C311.573,345.606 308.911,349.959 308.457,350.701C303.435,358.913 282.238,395.527 269.598,414.871C267.99,417.332 268.126,417.411 263.365,424.718C251.3,443.234 251.091,443.07 245.587,450.951C245.218,451.479 245.308,451.54 238.471,460.927C237.274,462.57 228.643,474.418 223.066,481.118C223.695,481.343 224.535,481.647 225.116,481.866C248.053,490.542 275.804,501.969 278.122,502.825C278.588,502.998 309.37,515.613 315.145,517.804C320.064,519.669 319.972,519.882 327.225,522.469C328.277,522.844 328.223,522.943 340.282,527.391C378.897,541.633 411.76,548.874 419.866,550.067C421.064,550.243 421,550.522 434.785,552.582C451.356,555.058 469.472,555.027 472.495,555.023C492.667,554.991 506.036,552.4 507.177,552.238C512.874,551.428 541.073,547.093 570.449,533.252C582.943,527.366 589.634,522.636 593.586,520.279C595.704,519.015 597.235,518.399 598.394,518.343C602.115,518.162 605.724,521.632 605.292,525.676C605.118,527.299 604.313,529.055 602.462,530.646C584.666,545.948 560.041,556.762 548.268,560.764C544.657,561.992 544.698,562.047 541.083,563.25C527.204,567.871 519.94,569.713 500.949,573.05C499.959,573.224 486.487,575.027 481.596,575.292C468.531,576 468.546,576.161 455.448,575.879C454.483,575.858 453.315,575.834 443.399,575.242C440.079,575.044 431.512,573.893 424.34,573.193C423.415,573.103 419.466,572.302 413.222,571.383C406.222,570.352 386.373,566.131 376.949,563.411C373.42,562.392 373.397,562.526 369.891,561.396C368.921,561.084 359.08,558.457 348.709,554.67C344.456,553.117 343.346,553.108 330.845,548.164C326.574,546.475 326.516,546.648 316.631,542.648C303.476,537.325 283.107,528.241 280.725,527.097C279.513,526.514 260.586,517.752 258.834,516.941C256.807,516.003 256.86,515.94 254.815,515.032C250.914,513.301 243.805,509.84 239.801,508.156C238.811,507.74 238.88,507.619 227.558,502.652C226.936,502.38 222.046,500.234 219.764,499.295C216.513,497.957 214.325,496.933 212.731,496.32C211.432,495.821 210.855,495.537 210.147,496.216C207.131,499.114 201.005,506.244 187.675,516.956C129.604,563.621 86.405,546.267 84.783,545.746C61.149,538.151 59.055,521.375 58.306,516.861C57.473,511.842 58.819,503.404 61.035,497.919C72.715,469.009 107.535,462.579 112.502,461.609C119.715,460.201 136.691,459.983 152.697,461.896C163.831,463.227 186.383,468.721 196.381,471.809C196.809,471.191 197.34,470.453 198.101,469.439C221.082,438.804 236.56,412.694 239.442,408.189C244.606,400.114 268.434,359.839 275.527,347.382L275.963,346.618ZM327.641,317.919C331.748,316.304 341.061,312.679 346.758,309.959C350.119,308.354 362.696,302.636 379.69,292.172C387.09,287.615 387.041,287.55 387.684,287.155C389.146,286.257 394.184,283.159 405.243,274.84C408.048,272.662 443.066,247.587 476.312,202.616C484.135,192.034 487.229,187.382 493.463,177.254C503.128,161.552 511.354,143.162 513.052,128.692C514.097,119.79 512.742,112.423 507.095,108.566C498.348,102.592 487.335,107.18 484.176,108.343C472.141,112.776 459.515,123.392 448.074,135.267C430.634,153.366 415.983,174.45 410.429,181.927C409.441,183.257 398.816,198.779 398.728,198.918C398.192,199.765 395.128,204.605 391.944,209.457C388.222,215.132 388.381,215.207 384.723,220.915C377.896,231.57 351.891,276.166 348.914,281.328C336.781,302.371 336.678,302.292 329.115,315.432C328.543,316.427 328.054,317.247 327.641,317.919ZM186,485.558L184.693,485.156L184.634,485.137C183.738,484.837 182.835,484.547 181.97,484.293C174.275,482.032 173.649,481.884 173.035,481.705L172.85,481.65C168.016,480.193 167.949,480.532 163.048,479.307C160.545,478.681 153.066,477.357 152.195,477.203C149.857,476.788 138.8,475.42 131.513,475.473C105.302,475.661 88.719,484.527 80.019,494.877C74.472,501.475 72.17,508.618 72.762,514.26C73.692,523.107 79.549,527.107 80.688,528.02C88.341,534.151 103.278,536.591 117.155,533.767C136.458,529.838 154.058,517.225 166.866,505.63C176.145,497.23 182.916,489.338 186,485.558Z" style="fill:rgb(36,63,82);"/>
                    </g>
                    <g transform="matrix(1,0,0,0.463019,11.314186,0)">
                        <path d="M1671.631,488.912C1672.776,487.705 1674.834,485.562 1677.246,484.132C1678.947,483.123 1680.823,482.473 1682.687,482.686C1686.423,483.113 1687.93,486.161 1687.301,489.085C1687.189,489.609 1687.079,490.048 1686.978,490.417C1687.605,489.726 1688.461,488.817 1689.626,487.637C1691.791,485.444 1693.709,484.292 1694.102,484.056C1697.855,481.8 1701.123,482.401 1702.529,483.222C1703.183,483.604 1704.061,484.262 1704.556,485.47C1705.03,486.626 1705.161,488.315 1704.303,490.807C1702.99,494.62 1698.262,501.464 1696.886,503.819C1696.304,504.815 1696.165,504.948 1695.694,505.738C1693.724,509.041 1693.217,510.266 1693.046,510.68C1692.253,512.602 1692.722,513.337 1693.178,513.57C1693.691,513.834 1694.379,513.698 1695.023,513.486C1696.138,513.119 1697.137,512.45 1697.163,512.434C1698.704,511.519 1700.987,509.553 1701.261,509.295C1702.397,508.227 1702.409,508.243 1702.507,508.15C1706.754,504.053 1709.379,500.531 1709.696,500.134C1712.895,496.129 1719.856,483.776 1720.786,482.715C1721.894,481.451 1723.603,481.745 1723.855,481.791C1725.045,482.011 1725.625,482.523 1725.887,483.078C1726.138,483.611 1726.102,484.221 1725.934,484.775C1725.72,485.486 1725.299,486.091 1725.236,486.196C1724.976,486.628 1724.742,487.02 1724.531,487.376L1724.659,487.253C1726.876,485.113 1729.305,483.829 1730.014,483.512C1732.341,482.472 1733.286,482.479 1733.729,482.421C1734.158,482.364 1736.972,482.013 1739.042,483.425C1740.858,484.664 1741.385,486.379 1741.481,486.691C1741.909,488.077 1741.914,488.619 1741.907,489.717C1741.887,492.902 1740.461,496.067 1739.934,497.295C1738.851,499.82 1736.827,503.231 1735.249,505.379C1733.593,507.633 1733.6,507.634 1733.389,507.894C1732.19,509.373 1731.022,510.644 1730.117,511.579C1734.313,509.307 1735.905,507.826 1736.222,507.592C1738.662,505.791 1741.022,503.253 1742.459,501.737C1743.374,500.772 1743.193,500.653 1743.792,499.484C1744.087,498.909 1744.089,498.915 1744.385,498.344C1745.501,496.195 1747.749,493.123 1749.197,491.51C1751.983,488.406 1753.181,487.495 1755.05,486.007C1756.49,484.861 1759.421,483.119 1761.944,482.592C1764.897,481.975 1766.237,482.345 1766.405,482.373C1768.228,482.682 1769.391,483.431 1770.077,484.398C1770.725,485.311 1770.955,486.431 1770.876,487.615C1770.763,489.292 1770.025,491.102 1769.068,492.567C1766.695,496.201 1763.451,498.287 1762.112,499.249C1761.687,499.554 1759.329,500.82 1759.329,500.82C1755.628,502.643 1752.67,503.19 1751.014,503.564C1750.682,503.639 1750.406,503.706 1750.191,503.776C1750.059,503.82 1749.957,503.848 1749.904,503.901C1749.814,503.989 1749.671,504.295 1749.485,504.707C1748.981,505.826 1748.31,507.678 1748.157,508.91C1747.953,510.543 1748.237,511.642 1748.706,512.378C1749.389,513.448 1750.441,513.727 1750.732,513.826C1751,513.918 1752.254,514.336 1754.275,513.884C1756.757,513.329 1756.891,513.106 1758.249,512.486C1760.26,511.568 1764.897,508.293 1769.37,502.618C1771.3,500.169 1771.938,499.072 1771.982,499.015C1772.452,498.413 1772.985,498.258 1773.439,498.314C1774.144,498.4 1774.712,499.058 1774.762,499.72C1774.791,500.095 1774.554,500.797 1774.095,501.644C1773.153,503.378 1771.326,505.87 1769.927,507.379C1767.897,509.571 1767.905,509.581 1765.731,511.418C1764.752,512.245 1758.069,517.864 1751.026,517.802C1745.203,517.751 1743.231,514.398 1742.529,513.121C1741.821,511.836 1741.5,509.872 1741.481,508.859C1741.471,508.338 1741.481,507.905 1741.501,507.553C1740.685,508.184 1739.566,509.053 1739.109,509.427C1737.382,510.841 1734.309,512.826 1733.516,513.261C1730.219,515.065 1728.626,515.685 1726.327,516.365C1723.339,517.249 1721.151,517.39 1719.979,517.492C1717.146,517.739 1714.062,517.144 1712.444,515.649C1711.575,514.846 1711.572,514.114 1711.871,513.711C1712.063,513.453 1712.424,513.255 1712.941,513.234C1713.497,513.21 1714.281,513.388 1715.172,513.871C1715.861,514.244 1717.034,514.15 1717.645,513.944C1718.262,513.737 1720.293,513.032 1724.073,508.953C1726.718,506.098 1729.258,502.404 1729.594,501.896C1733.709,495.691 1735.346,491.259 1735.686,489.382C1735.981,487.748 1735.822,486.734 1735.279,486.187C1734.805,485.709 1734.065,485.646 1733.237,485.782C1731.794,486.019 1730.103,486.896 1728.785,487.881C1726.822,489.349 1725.957,490.249 1725.735,490.48C1724.374,491.897 1723.778,492.372 1721.579,495.311C1720.203,497.148 1719.652,498.128 1718.986,499.126C1718.021,500.569 1715.241,505.273 1714.921,505.797C1713.975,507.344 1712.753,509.621 1712.306,510.179C1711.78,510.834 1700.216,532.21 1695.144,541.111C1694.248,542.682 1693.553,543.868 1693.154,544.49C1692.938,544.826 1692.778,545.021 1692.709,545.078C1691.888,545.744 1690.158,545.955 1688.885,545.518C1687.935,545.192 1687.251,544.529 1687.217,543.549C1687.215,543.486 1687.239,543.321 1687.338,543.076C1687.568,542.505 1688.248,541.121 1689.223,539.211C1692.96,531.892 1701.06,516.768 1704.527,510.312C1704.192,510.607 1703.795,510.958 1703.209,511.514C1701.418,513.214 1698.843,515.096 1698.357,515.389C1696.099,516.746 1694.961,517.188 1692.983,517.492C1690.586,517.86 1688.341,516.863 1687.332,515.549C1686.504,514.471 1686.282,512.982 1686.259,512.712C1686.024,509.86 1687.585,506.79 1687.625,506.706C1687.858,506.203 1688.675,504.443 1691.072,500.702L1694.051,496.073C1696.14,492.803 1697.578,490.378 1698.204,488.69C1698.395,488.176 1698.508,487.739 1698.53,487.372C1698.546,487.097 1698.513,486.873 1698.395,486.703C1698.162,486.368 1697.823,486.221 1697.403,486.229C1696.869,486.239 1696.232,486.469 1695.507,486.87C1693.11,488.199 1689.895,491.374 1686.544,495.716C1684.109,498.871 1683.99,499.179 1683.307,500.094C1680.562,503.775 1674.315,514.249 1673.361,515.533C1671.906,517.493 1669.423,517.52 1668.134,516.502C1667.152,515.726 1667.057,514.818 1667.35,513.833C1667.592,513.024 1668.135,512.153 1668.559,511.276C1669.337,509.666 1672.882,503.895 1672.926,503.827C1673.593,502.808 1673.758,502.437 1673.99,502.075C1674.39,501.453 1675.716,499.214 1675.864,498.964C1680.6,490.974 1681.093,489.075 1681.332,488.134C1681.491,487.507 1681.485,486.948 1681.204,486.6C1681.045,486.404 1680.794,486.304 1680.459,486.297C1679.553,486.28 1678.289,487.091 1677.834,487.415C1677.273,487.815 1671.878,491.278 1662.852,504.996C1662.695,505.235 1661.229,507.462 1660.904,507.987C1659.61,510.074 1659.629,510.085 1659.513,510.265C1657.895,512.765 1657.656,513.374 1656.819,514.678C1656.182,515.671 1655.688,517.068 1653.458,517.175C1652.192,517.236 1651.398,516.867 1650.92,516.375C1650.407,515.848 1650.237,515.156 1650.278,514.555C1650.302,514.207 1650.303,513.771 1651.904,511.043C1650.962,511.927 1649.658,513.07 1647.809,514.553C1641.863,519.322 1637.916,517.458 1636.378,515.849C1635.077,514.487 1635.007,512.502 1635,512.211C1634.981,511.405 1635.052,510.686 1635.161,510.075C1634.591,510.663 1633.827,511.429 1632.819,512.405C1632.227,512.977 1630.166,515.082 1627.523,516.435C1625.7,517.368 1623.605,517.939 1621.514,517.476C1616.87,516.446 1616.531,511.911 1616.483,511.561C1616.138,509.035 1616.996,505.329 1618.597,501.964C1620.357,498.267 1623.565,493.925 1625.06,492.239C1626.295,490.846 1626.301,490.856 1626.406,490.733C1628.01,488.867 1630.782,486.482 1631.672,485.813C1636.416,482.249 1640.548,481.831 1640.712,481.816C1640.915,481.793 1643.49,481.524 1645.26,482.372C1645.895,482.677 1647.426,483.342 1647.959,485.525C1648.027,485.803 1648.075,486.063 1648.107,486.303L1649.04,484.941C1649.413,484.397 1649.411,484.397 1649.904,483.966C1651.319,482.728 1652.942,483.045 1653.908,483.516C1654.365,483.739 1654.677,484.006 1654.791,484.162C1655.652,485.337 1655.375,486.382 1654.52,487.787C1654.253,488.227 1652.216,491.576 1651.151,493.281C1649.37,496.13 1649.416,496.157 1649.261,496.405C1647.656,498.97 1644.5,504.397 1644.309,504.77C1643.362,506.615 1643.299,506.577 1643.217,506.738C1642.402,508.339 1641.263,510.535 1641.185,511.984C1641.145,512.727 1641.278,513.192 1641.557,513.456C1641.792,513.679 1642.116,513.734 1642.435,513.73C1643.02,513.723 1643.607,513.504 1643.863,513.377C1645.155,512.738 1645.959,512.102 1646.834,511.449C1647.891,510.662 1650.85,507.94 1654.055,504.249C1656.048,501.952 1657.613,499.84 1657.675,499.76C1662.881,493.057 1666.792,485.726 1668.291,483.435C1669.112,482.18 1670.733,481.882 1671.99,482.249C1672.891,482.512 1673.582,483.114 1673.75,483.872C1673.892,484.51 1673.773,485.046 1673.424,485.736C1673.136,486.308 1672.675,487.012 1672.098,488.064L1671.631,488.912ZM1643.295,489.202C1643.448,488.617 1643.465,488.621 1643.51,488.331C1643.611,487.682 1643.52,487.207 1643.351,486.866C1643.117,486.397 1642.742,486.203 1642.645,486.154C1642.451,486.053 1641.584,485.65 1639.864,486.434C1635.373,488.48 1628.79,496.605 1627.125,498.901C1626.578,499.654 1624.202,502.76 1622.528,506.009C1621.457,508.087 1620.653,510.218 1620.899,511.789C1621.084,512.963 1622.086,513.398 1623.1,513.185C1623.42,513.118 1624.741,512.83 1626.722,511.26C1628.194,510.095 1629.031,509.42 1631.188,507.145C1634.723,503.418 1639.103,497.488 1640.055,495.922C1642.608,491.726 1643.14,489.775 1643.295,489.202ZM1750.044,499.815C1750.453,499.788 1750.931,499.743 1751.209,499.673C1753.689,499.049 1753.976,498.815 1755.014,498.439L1755.02,498.437C1755.267,498.324 1756.418,497.827 1756.996,497.497C1757.255,497.35 1759.164,496.264 1760.144,495.512C1764.622,492.075 1765.641,489.748 1765.994,489C1766.444,488.047 1766.52,487.319 1766.339,486.786C1766.102,486.084 1765.411,485.787 1764.816,485.804C1763.524,485.841 1761.759,486.899 1759.843,488.464C1756.84,490.916 1753.53,494.643 1751.192,498.077C1750.366,499.289 1750.141,499.653 1750.044,499.815Z" style="fill:rgb(36,63,82);"/>
                    </g>
                </g>
            </g>
            <g transform="matrix(0.316252,0,0,0.146431,771.36545,12.356539)">
                <g transform="matrix(81.554333,0,0,81.554333,785.682652,464.959217)">
                </g>
                <text x="323.106px" y="464.959px" style="font-family:'AllureMajestic-SemiBold', 'AllureMajestic';font-weight:600;font-size:81.554px;fill:rgb(154,117,52);">Le<tspan x="400.583px 442.013px " y="464.959px 464.959px ">nd</tspan>in<tspan x="544.363px 581.471px 602.267px 639.13px 676.4px 721.01px " y="464.959px 464.959px 464.959px 464.959px 464.959px 464.959px ">g Team</tspan></text>
            </g>
            <g transform="matrix(0.316564,0,0,0.133056,547.540658,57.431212)">
                <rect x="1138.85" y="271.296" width="244.814" height="2.593" style="fill:rgb(79,100,113);"/>
            </g>
        </g>
    </g>
</svg>
