<?xml version="1.0" encoding="UTF-8" standalone="no"?>
<!DOCTYPE svg PUBLIC "-//W3C//DTD SVG 1.1//EN" "http://www.w3.org/Graphics/SVG/1.1/DTD/svg11.dtd">
<svg width="100%" height="100%" viewBox="0 0 53 53" version="1.1" xmlns="http://www.w3.org/2000/svg" xmlns:xlink="http://www.w3.org/1999/xlink" xml:space="preserve" xmlns:serif="http://www.serif.com/" style="fill-rule:evenodd;clip-rule:evenodd;stroke-linejoin:round;stroke-miterlimit:2;">
    <g transform="matrix(1,0,0,1,2411.639816,-1102.619999)">
        <g transform="matrix(0.847308,0,0,0.847308,-7806.55085,-7118.927415)">
            <path d="M6380.951,9704.555L6390.433,9716.501C6391.34,9717.642 6391.193,9719.294 6390.1,9720.258C6388.963,9721.261 6387.643,9722.426 6386.575,9723.386C6384.996,9724.782 6384.493,9727.035 6385.327,9728.971C6388.849,9737.086 6394.658,9742.762 6402.606,9746.162L6402.61,9746.164C6404.443,9746.938 6406.563,9746.524 6407.97,9745.116L6410.473,9742.614C6411.421,9741.665 6412.917,9741.543 6414.007,9742.325L6427.4,9751.934C6428.053,9752.403 6428.468,9753.135 6428.533,9753.937C6428.599,9754.738 6428.309,9755.528 6427.74,9756.097C6426.301,9757.536 6424.513,9759.324 6422.77,9761.061C6418.59,9765.241 6412.356,9766.6 6406.815,9764.539C6387.67,9757.368 6374.883,9743.6 6367.958,9723.724C6366.06,9718.253 6367.455,9712.177 6371.551,9708.082L6375.396,9704.236C6376.147,9703.485 6377.184,9703.09 6378.245,9703.151C6379.306,9703.211 6380.291,9703.722 6380.951,9704.555Z" style="fill:rgb(36,63,82);"/>
        </g>
    </g>
</svg>
