<?xml version="1.0" encoding="UTF-8" standalone="no"?>
<!DOCTYPE svg PUBLIC "-//W3C//DTD SVG 1.1//EN" "http://www.w3.org/Graphics/SVG/1.1/DTD/svg11.dtd">
<svg width="100%" height="100%" viewBox="0 0 44 44" version="1.1" xmlns="http://www.w3.org/2000/svg" xmlns:xlink="http://www.w3.org/1999/xlink" xml:space="preserve" xmlns:serif="http://www.serif.com/" style="fill-rule:evenodd;clip-rule:evenodd;stroke-linejoin:round;stroke-miterlimit:2;">
    <g transform="matrix(1,0,0,1,2411.639816,-1340.438583)">
        <g transform="matrix(0.847308,0,0,0.847308,-7810.81225,-6885.761624)">
            <path d="M6378.276,9740.986C6381.122,9742.054 6384.684,9742.893 6388.697,9743.406C6389.502,9749.713 6391.116,9754.91 6393.162,9757.969C6393.607,9758.634 6394.075,9759.201 6394.56,9759.664C6386.658,9758.037 6380.314,9750.616 6378.276,9740.986ZM6418.907,9739.083C6419.128,9737.537 6419.244,9735.944 6419.244,9734.316C6419.244,9732.689 6419.128,9731.096 6418.907,9729.549C6420.365,9730.249 6421.532,9731.021 6422.336,9731.855C6423.086,9732.632 6423.513,9733.453 6423.513,9734.316C6423.513,9735.18 6423.086,9736.001 6422.336,9736.778C6421.532,9737.612 6420.365,9738.384 6418.907,9739.083ZM6405.924,9726.27C6406.209,9728.804 6406.363,9731.508 6406.363,9734.316C6406.363,9737.124 6406.209,9739.828 6405.924,9742.362C6403.377,9742.649 6400.657,9742.804 6397.833,9742.804C6395.008,9742.804 6392.288,9742.649 6389.741,9742.362C6389.456,9739.828 6389.302,9737.124 6389.302,9734.316C6389.302,9731.508 6389.456,9728.804 6389.741,9726.27C6392.288,9725.983 6395.008,9725.828 6397.833,9725.828C6400.657,9725.828 6403.377,9725.983 6405.924,9726.27ZM6405.78,9725.086C6403.27,9724.812 6400.6,9724.664 6397.833,9724.664C6395.065,9724.664 6392.395,9724.812 6389.885,9725.086C6390.506,9720.37 6391.588,9716.31 6392.979,9713.373C6393.697,9711.854 6394.494,9710.642 6395.357,9709.813C6396.138,9709.063 6396.964,9708.636 6397.833,9708.636C6398.701,9708.636 6399.527,9709.063 6400.308,9709.813C6401.171,9710.642 6401.968,9711.854 6402.687,9713.373C6404.077,9716.31 6405.159,9720.37 6405.78,9725.086ZM6423.327,9731.216C6422.839,9730.676 6422.222,9730.156 6421.485,9729.665C6420.688,9729.134 6419.747,9728.633 6418.678,9728.168C6417.276,9720.679 6413.368,9714.405 6408.14,9710.791C6416.284,9714.368 6422.223,9722.053 6423.327,9731.216ZM6376.759,9729.549C6376.537,9731.096 6376.421,9732.689 6376.421,9734.316C6376.421,9735.944 6376.537,9737.537 6376.759,9739.083C6375.3,9738.384 6374.133,9737.612 6373.329,9736.778C6372.579,9736.001 6372.152,9735.18 6372.152,9734.316C6372.152,9733.453 6372.579,9732.632 6373.329,9731.855C6374.133,9731.021 6375.3,9730.249 6376.759,9729.549ZM6417.643,9739.641C6414.841,9740.782 6411.226,9741.676 6407.108,9742.218C6407.38,9739.721 6407.527,9737.067 6407.527,9734.316C6407.527,9731.565 6407.38,9728.911 6407.108,9726.415C6411.226,9726.957 6414.841,9727.85 6417.643,9728.991C6417.929,9730.71 6418.079,9732.492 6418.079,9734.316C6418.079,9736.141 6417.929,9737.922 6417.643,9739.641ZM6388.557,9726.415C6388.285,9728.911 6388.138,9731.565 6388.138,9734.316C6388.138,9737.067 6388.285,9739.721 6388.557,9742.218C6384.439,9741.676 6380.824,9740.782 6378.022,9739.641C6377.736,9737.922 6377.586,9736.141 6377.586,9734.316C6377.586,9732.492 6377.736,9730.71 6378.022,9728.991C6380.824,9727.85 6384.439,9726.957 6388.557,9726.415ZM6394.56,9708.969C6394.075,9709.432 6393.607,9709.998 6393.162,9710.663C6391.116,9713.722 6389.502,9718.919 6388.697,9725.227C6384.684,9725.739 6381.122,9726.578 6378.276,9727.647C6380.314,9718.017 6386.658,9710.595 6394.56,9708.969ZM6387.525,9710.791C6382.297,9714.405 6378.389,9720.679 6376.987,9728.168C6375.918,9728.633 6374.977,9729.134 6374.18,9729.665C6373.443,9730.156 6372.826,9730.676 6372.338,9731.216C6373.442,9722.053 6379.381,9714.368 6387.525,9710.791ZM6408.14,9757.841C6413.368,9754.228 6417.276,9747.954 6418.678,9740.465C6419.747,9739.999 6420.688,9739.498 6421.485,9738.968C6422.222,9738.476 6422.839,9737.957 6423.327,9737.416C6422.223,9746.58 6416.284,9754.264 6408.14,9757.841ZM6389.885,9743.546C6392.395,9743.82 6395.065,9743.969 6397.833,9743.969C6400.6,9743.969 6403.27,9743.82 6405.78,9743.546C6405.159,9748.263 6404.077,9752.322 6402.687,9755.26C6401.968,9756.779 6401.171,9757.991 6400.308,9758.819C6399.527,9759.569 6398.701,9759.997 6397.833,9759.997C6396.964,9759.997 6396.138,9759.569 6395.357,9758.819C6394.494,9757.991 6393.697,9756.779 6392.979,9755.26C6391.588,9752.322 6390.506,9748.263 6389.885,9743.546ZM6372.338,9737.416C6372.826,9737.957 6373.443,9738.476 6374.18,9738.968C6374.977,9739.498 6375.918,9739.999 6376.987,9740.465C6378.389,9747.954 6382.297,9754.228 6387.525,9757.841C6379.381,9754.264 6373.442,9746.58 6372.338,9737.416ZM6401.105,9759.664C6401.59,9759.201 6402.058,9758.634 6402.503,9757.969C6404.549,9754.91 6406.163,9749.713 6406.968,9743.406C6410.981,9742.893 6414.544,9742.054 6417.389,9740.986C6415.351,9750.616 6409.007,9758.037 6401.105,9759.664ZM6417.389,9727.647C6414.544,9726.578 6410.981,9725.739 6406.968,9725.227C6406.163,9718.919 6404.549,9713.722 6402.503,9710.663C6402.058,9709.998 6401.59,9709.432 6401.105,9708.969C6409.007,9710.595 6415.351,9718.017 6417.389,9727.647Z" style="fill:rgb(36,63,82);"/>
        </g>
    </g>
</svg>
