<?xml version="1.0" encoding="UTF-8" standalone="no"?>
<!DOCTYPE svg PUBLIC "-//W3C//DTD SVG 1.1//EN" "http://www.w3.org/Graphics/SVG/1.1/DTD/svg11.dtd">
<svg width="100%" height="100%" viewBox="0 0 66 66" version="1.1" xmlns="http://www.w3.org/2000/svg" xmlns:xlink="http://www.w3.org/1999/xlink" xml:space="preserve" xmlns:serif="http://www.serif.com/" style="fill-rule:evenodd;clip-rule:evenodd;stroke-linejoin:round;stroke-miterlimit:2;">
    <g transform="matrix(1,0,0,1,1066.722389,-1326.303848)">
        <g transform="matrix(0.03068,0,0,0.03068,-1337.826387,1442.176862)">
            <path d="M9903.262,-3776.772C10492.09,-3776.772 10970.143,-3298.719 10970.143,-2709.891C10970.143,-2121.064 10492.09,-1643.01 9903.262,-1643.01C9314.434,-1643.01 8836.381,-2121.064 8836.381,-2709.891C8836.381,-3298.719 9314.434,-3776.772 9903.262,-3776.772ZM10601.652,-3156.774C10575.251,-3191.556 10530.256,-3218.6 10482.353,-3227.564C10341.551,-3254.302 9463.146,-3254.378 9322.421,-3227.564C9284.006,-3220.363 9249.801,-3202.972 9220.416,-3175.927C9096.602,-3061.009 9135.399,-2444.739 9165.243,-2344.913C9177.793,-2301.703 9194.015,-2270.522 9214.447,-2250.066C9240.771,-2223.023 9276.813,-2204.406 9318.212,-2196.055C9434.144,-2172.075 10031.404,-2158.668 10479.904,-2192.454C10521.226,-2199.656 10557.804,-2218.885 10586.653,-2247.079C10701.131,-2361.538 10693.326,-3012.437 10601.652,-3156.774ZM9748.729,-2511.239L9748.729,-2942.336C9901.774,-2870.321 10020.308,-2800.757 10160.498,-2725.753C10044.872,-2661.629 9901.774,-2589.689 9748.729,-2511.239Z" style="fill:rgb(36,63,82);"/>
        </g>
    </g>
</svg>
